<svg width="370" height="142" viewBox="0 0 370 142" fill="none" xmlns="http://www.w3.org/2000/svg">
<path d="M185.49 90.89H185.38H185.21H183.8C180.61 90.83 178.7 89.61 178.7 86.3C178.7 82.84 180.7 81.6899 184.07 81.6899H194.88V76.6899H183.35C176.78 76.6899 173.18 80.2099 173.18 86.3099C173.18 91.9299 177 95.63 183.07 95.74H184.76C187.95 95.81 189.86 97.0199 189.86 100.34C189.86 103.66 187.86 104.94 184.49 104.94H173.65V109.94H185.21C191.78 109.94 195.38 106.42 195.38 100.33C195.38 94.7 191.55 91 185.49 90.89Z" fill="#090917"/>
<path d="M200.4 81.64H210.16V110.02H215.49V81.64H225.25V76.6899H200.4V81.64Z" fill="#090917"/>
<path d="M235.12 76.6899L225.46 110.01H231.03L233.31 101.87H246.93L249.21 110.01H254.78L245.21 76.6899H235.12ZM234.74 96.8799L240.12 77.8799L245.5 96.8799H234.74Z" fill="#090917"/>
<path d="M289.02 81.64H298.78V110.02H304.11V81.64H313.87V76.6899H289.02V81.64Z" fill="#090917"/>
<path d="M319.35 110.02H340.77V105.06H324.73V95.2599H339.29V90.4H324.73V81.5999H340.77V76.6899H319.35V110.02Z" fill="#090917"/>
<path d="M171.26 37.08H181.02V65.45H186.36V37.08H196.11V32.13H171.26V37.08Z" fill="#090917"/>
<path d="M223.01 60.5H206.97V50.69H221.53V45.84H206.97V37.03H223.01V32.13H201.59V65.45H223.01V60.5Z" fill="#090917"/>
<path d="M241.39 36.7899C246.77 36.7899 249.19 39.6499 249.53 44.0699H254.88C254.49 36.3599 249.45 31.7 241.36 31.7C232.98 31.7 227.74 36.84 227.74 45.93V51.64C227.74 60.74 232.98 65.8799 241.36 65.8799C249.36 65.8799 254.36 61.3499 254.83 53.8799H249.48C249.15 58.1199 246.62 60.8799 241.39 60.8799C235.67 60.8799 233.15 57.4 233.15 51.64V45.93C233.15 40.17 235.67 36.7899 241.39 36.7899Z" fill="#090917"/>
<path d="M280.54 45.79H265.79V32.13H260.41V65.45H265.79V50.88H280.54V65.45H285.87V32.13H280.54V45.79Z" fill="#090917"/>
<path d="M283.77 86.0699C283.77 80.4099 279.86 76.6899 273.68 76.6899H260.25V110.01H265.54V101.01V95.5699H273.71L273.98 96.5699L274.06 96.8499L275.46 101.85L277.75 109.99H283.32L278.88 94.5299C282.09 93.1399 283.77 90.2299 283.77 86.0699ZM272.96 90.6899H265.54V81.55H272.96C276.29 81.55 278.29 82.74 278.29 86.12C278.29 89.5 276.29 90.6899 272.96 90.6899Z" fill="#090917"/>
<path d="M369.65 86.0699C369.65 80.4099 365.75 76.6899 359.56 76.6899H346.14V110.01H351.42V101.01V95.5699H359.59L359.87 96.5699L359.95 96.8499L361.34 101.85L363.62 109.99H369.19L364.88 94.58C367.98 93.14 369.65 90.2299 369.65 86.0699ZM358.88 90.6899H351.45V81.55H358.88C362.21 81.55 364.21 82.74 364.21 86.12C364.21 89.5 362.18 90.6899 358.88 90.6899Z" fill="#090917"/>
<path fill-rule="evenodd" clip-rule="evenodd" d="M141.73 0H0V141.73H141.73V0ZM106.3 24.76C103.495 24.758 100.752 25.5882 98.4182 27.1456C96.0848 28.703 94.2658 30.9175 93.1913 33.5089C92.1168 36.1004 91.8352 38.9524 92.382 41.704C92.9288 44.4555 94.2795 46.9831 96.2632 48.9668C98.2469 50.9505 100.774 52.3012 103.526 52.848C106.278 53.3948 109.13 53.1132 111.721 52.0387C114.313 50.9642 116.527 49.1452 118.084 46.8118C119.642 44.4784 120.472 41.7354 120.47 38.93C120.467 35.1727 118.974 31.5701 116.317 28.9132C113.66 26.2564 110.057 24.7627 106.3 24.76ZM21.26 24.76H56.75H72.77H85.1V53.21V81.56V81.59V107.6V109.89V109.93V116.98H56.75V109.93V109.89V107.6V81.59V81.56V53.21V53.11H21.26V24.76Z" fill="#090917"/>
</svg>
